<?xml version="1.0" standalone="no"?>
<!DOCTYPE svg PUBLIC "-//W3C//DTD SVG 20010904//EN"
 "http://www.w3.org/TR/2001/REC-SVG-20010904/DTD/svg10.dtd">
<svg version="1.0" xmlns="http://www.w3.org/2000/svg"
 width="220.000000pt" height="370.000000pt" viewBox="0 0 220.000000 370.000000"
 preserveAspectRatio="xMidYMid meet">

<g transform="translate(0.000000,370.000000) scale(0.100000,-0.100000)"
fill="#000000" stroke="none">
<path d="M253 3554 c-78 -123 -88 -154 -50 -154 17 0 33 18 67 73 l45 72 3
-125 c2 -92 -1 -126 -10 -129 -58 -19 -78 -112 -33 -156 13 -14 29 -25 35 -25
6 0 10 -37 10 -99 l0 -99 62 -23 62 -23 -40 -17 c-21 -9 -90 -34 -151 -55
-158 -54 -156 -63 25 -133 75 -29 140 -56 144 -60 4 -3 -58 -31 -137 -60 -125
-46 -145 -57 -145 -75 0 -19 20 -30 138 -75 75 -29 140 -56 144 -60 4 -3 -58
-31 -137 -60 -127 -47 -145 -57 -145 -76 0 -19 14 -27 90 -56 l90 -33 0 -83
c0 -51 -4 -83 -10 -83 -6 0 -22 -11 -35 -25 -35 -34 -35 -96 0 -130 13 -14 29
-25 35 -25 6 0 10 -35 10 -94 l0 -94 60 -22 c33 -12 60 -24 60 -25 0 -1 -67
-28 -150 -61 -195 -76 -197 -83 -37 -138 61 -21 130 -46 151 -55 l39 -17 -94
-36 c-52 -20 -120 -44 -151 -54 -47 -14 -58 -22 -58 -39 0 -17 21 -29 138 -74
75 -29 140 -56 144 -60 4 -3 -58 -31 -137 -60 -127 -47 -145 -57 -145 -76 0
-19 14 -27 90 -56 l90 -33 0 -83 c0 -51 -4 -83 -10 -83 -6 0 -22 -11 -35 -25
-35 -34 -35 -96 0 -130 13 -14 29 -25 35 -25 5 0 10 -22 10 -50 l0 -50 -115 0
-115 0 0 -25 0 -25 250 0 250 0 0 25 0 25 -110 0 -110 0 0 49 c0 41 4 51 24
65 14 8 27 25 31 36 6 20 14 20 351 20 l344 0 0 25 0 25 -341 0 -341 0 -34 37
c-34 37 -34 38 -34 134 l0 96 -66 24 -66 24 151 55 c201 73 202 76 5 155
l-146 58 89 32 c189 69 203 76 203 100 0 24 -14 31 -203 100 l-89 32 146 58
c125 50 146 62 146 80 0 18 -14 28 -85 55 l-85 33 0 72 c0 66 2 74 24 89 14 8
27 25 31 36 6 20 14 20 351 20 l344 0 0 25 0 25 -341 0 -341 0 -34 37 c-34 37
-34 38 -34 134 l0 96 -66 24 -66 24 151 55 c202 74 202 76 1 156 l-150 60 150
55 c200 72 200 75 4 154 l-146 58 89 32 c189 69 203 76 203 100 0 19 -14 27
-85 55 l-85 33 0 77 c0 71 2 79 24 94 14 8 27 25 31 36 6 20 14 20 351 20
l344 0 0 25 0 25 -341 0 -341 0 -34 37 -34 37 0 120 0 121 43 -72 c32 -56 47
-73 65 -73 36 0 27 30 -45 154 -51 87 -73 116 -88 116 -15 0 -39 -31 -92 -116z"/>
<path d="M1292 3246 c3 -202 6 -211 72 -260 40 -30 172 -30 212 0 66 49 69 58
72 260 l4 184 -30 0 -30 0 -4 -180 -3 -180 -27 -27 c-24 -24 -36 -27 -88 -28
-52 0 -63 3 -87 28 l-28 27 -3 180 -4 180 -30 0 -30 0 4 -184z"/>
<path d="M1750 3200 l0 -230 30 0 30 0 0 95 0 95 90 0 c107 0 151 15 180 62
43 70 12 170 -60 195 -19 7 -88 12 -152 12 l-118 1 0 -230z m267 157 c12 -12
18 -33 18 -62 0 -68 -17 -79 -130 -83 l-95 -4 0 87 0 87 95 -4 c74 -2 98 -7
112 -21z"/>
<path d="M1415 2059 c-92 -34 -138 -109 -139 -224 -2 -162 89 -257 231 -242
65 7 114 37 142 88 27 48 26 66 -4 71 -20 4 -28 -1 -42 -30 -26 -53 -65 -77
-123 -77 -91 0 -144 68 -144 185 0 119 53 185 149 185 43 0 59 -5 80 -25 15
-14 31 -35 36 -48 7 -18 14 -21 36 -16 16 4 30 8 32 10 9 8 -44 82 -74 103
-39 27 -133 37 -180 20z"/>
<path d="M1720 2035 c0 -24 2 -25 75 -25 l75 0 0 -205 0 -205 30 0 30 0 0 205
0 205 75 0 c73 0 75 1 75 25 l0 25 -180 0 -180 0 0 -25z"/>
<path d="M1280 460 l0 -230 103 0 c117 0 164 11 206 46 86 72 89 290 4 366
-40 36 -89 48 -203 48 l-110 0 0 -230z m240 162 c52 -26 74 -73 74 -157 0
-135 -49 -185 -181 -185 l-73 0 0 180 0 180 73 0 c49 0 83 -6 107 -18z"/>
<path d="M1740 460 l0 -230 30 0 30 0 2 176 3 177 118 -177 c108 -163 119
-176 147 -176 l30 0 0 230 0 230 -25 0 -25 0 0 -175 c0 -96 -3 -175 -7 -175
-5 0 -60 79 -123 175 -110 166 -117 175 -147 175 l-33 0 0 -230z"/>
<path d="M200 185 l0 -25 140 0 140 0 0 25 0 25 -140 0 -140 0 0 -25z"/>
<path d="M290 75 c0 -23 3 -25 50 -25 47 0 50 2 50 25 0 23 -3 25 -50 25 -47
0 -50 -2 -50 -25z"/>
</g>
</svg>
